M48
INCH
T01C0.0150
T02C0.0360
T03C0.0910
T04C0.0400
T05C0.0350
T06C0.1290
T07C0.0620
T08C0.0280
%
T01
X-027000Y+016000
X-027000Y+014500
X-044863Y+031019
X-050867Y+031214
X-050330Y+033802
X-050447Y+030958
X-047883Y+033906
X-044881Y+026122
X-048863Y+027000
X-051665Y+029743
X-047720Y+028750
X-046505Y+028737
X-049000Y+047488
X-048386Y+048000
X-040000Y+038988
X-040500Y+038488
X-048500Y+048488
X-048000Y+048988
X-040500Y+039488
X-040244Y+037537
X-024712Y+027037
X-019747Y+027818
X-029398Y+026862
X-023500Y+029750
X-029347Y+027635
X-023075Y+030762
X-029367Y+021380
X-022890Y+022514
X-029333Y+020727
X-022563Y+021500
X-033509Y+029809
X-032500Y+028500
X-032523Y+029913
X-031750Y+023600
X-031747Y+022263
X-036919Y+020010
X-030730Y+021801
X-037045Y+018985
X-033786Y+022773
X-033500Y+029000
X-032301Y+022942
X-032309Y+022466
X-034100Y+028474
X-033926Y+018000
X-034179Y+019970
X-042550Y+014300
X-042017Y+015529
X-040873Y+016153
X-037031Y+019000
X-040961Y+015213
X-038550Y+019550
X-037522Y+028476
X-040450Y+014100
X-040450Y+015119
X-037389Y+018160
X-037547Y+018929
X-042575Y+017737
X-042563Y+018957
X-043700Y+016929
X-050387Y+024914
X-047401Y+026346
X-047460Y+025484
X-048258Y+031117
X-045266Y+032070
X-047667Y+027829
X-046207Y+028178
X-032338Y+015618
X-032330Y+016525
X-031616Y+014050
X-051419Y+022110
X-050919Y+022110
X-050419Y+022110
X-049919Y+022110
X-049419Y+022110
X-048919Y+022110
X-048419Y+022110
X-047919Y+022110
X-047419Y+022110
X-046919Y+022110
X-046419Y+022110
X-045919Y+022110
X-045669Y+021110
X-045669Y+020610
X-045669Y+020110
X-045669Y+019610
X-045669Y+019110
X-045669Y+018610
X-045669Y+018110
X-045669Y+017610
X-045669Y+016610
X-045669Y+017110
X-045669Y+016110
X-045669Y+015610
X-045919Y+014610
X-051419Y+014610
X-050919Y+014610
X-050419Y+014610
X-049919Y+014610
X-049419Y+014610
X-048919Y+014610
X-048419Y+014610
X-047919Y+014610
X-047419Y+014610
X-046919Y+014610
X-046419Y+014610
T02
X-020860Y+015500
X-020860Y+014240
X-019880Y+014240
X-019880Y+015500
T03
X-019000Y+012500
X-019000Y+017240
T04
X-033122Y+012000
X-033122Y+013000
X-034122Y+012000
X-034122Y+013000
X-035122Y+012000
X-035122Y+013000
X-036122Y+012000
X-036122Y+013000
X-037122Y+012000
X-037122Y+013000
X-038122Y+012000
X-038122Y+013000
X-039122Y+012000
X-039122Y+013000
X-040122Y+012000
X-040122Y+013000
X-041122Y+012000
X-041122Y+013000
X-042122Y+012000
X-042122Y+013000
X-043122Y+012000
X-043122Y+013000
X-044122Y+012000
X-044122Y+013000
X-045122Y+012000
X-045122Y+013000
X-046122Y+012000
X-046122Y+013000
X-047122Y+012000
X-047122Y+013000
X-048122Y+012000
X-048122Y+013000
X-049122Y+012000
X-049122Y+013000
X-050122Y+012000
X-050122Y+013000
X-051122Y+012000
X-051122Y+013000
X-052122Y+012000
X-052122Y+013000
X-051450Y+024000
X-050450Y+024000
X-049450Y+024000
X-048450Y+024000
X-036150Y+021000
X-036150Y+020000
X-036150Y+019000
X-036150Y+018000
X-036150Y+017000
X-035150Y+017000
X-035150Y+018000
X-035150Y+019000
X-035150Y+020000
X-035150Y+021000
X-036150Y+033200
X-036150Y+032200
X-036150Y+031200
X-036150Y+030200
X-036150Y+029200
X-035150Y+029200
X-035150Y+030200
X-035150Y+031200
X-035150Y+032200
X-035150Y+033200
T05
X-020750Y+020000
X-021750Y+020500
X-020750Y+021000
X-021750Y+021500
X-020750Y+022000
X-021750Y+022500
X-020750Y+023000
X-021750Y+023500
X-020750Y+028250
X-021750Y+028750
X-020750Y+029250
X-021750Y+029750
X-020750Y+030250
X-021750Y+030750
X-020750Y+031250
X-021750Y+031750
T06
X-018250Y+024000
X-018250Y+019500
X-018250Y+032250
X-018250Y+027750
T07
X-019450Y+018700
X-019450Y+024800
X-019450Y+026950
X-019450Y+033050
T08
X-016750Y+024250
X-016750Y+023500
X-016750Y+019250
X-016750Y+020000
X-016750Y+032500
X-016750Y+031750
X-016750Y+027500
X-016750Y+028250
M30
