M48
INCH
T01C0.0150
T02C0.0360
T03C0.0910
T04C0.0400
T05C0.0350
T06C0.1290
T07C0.0620
T08C0.0280
%
T01
X-044863Y+031969
X-050867Y+032164
X-050330Y+034752
X-050447Y+031908
X-047883Y+034856
X-044881Y+027072
X-048863Y+027950
X-051665Y+030693
X-024712Y+027037
X-019747Y+027818
X-029398Y+026862
X-023500Y+029750
X-029347Y+027635
X-023075Y+030762
X-029367Y+021380
X-022890Y+022514
X-029333Y+020727
X-022563Y+021500
X-033509Y+029809
X-032500Y+028500
X-032523Y+029913
X-031750Y+023600
X-031747Y+022263
X-033786Y+022773
X-033500Y+029000
X-032301Y+022942
X-032309Y+022466
X-034100Y+028474
X-033926Y+018000
X-034179Y+019970
X-032338Y+015618
X-032330Y+016525
X-031616Y+014050
X-041989Y+015188
X-041063Y+015457
X-030674Y+021798
X-037118Y+022483
X-037118Y+018980
X-040583Y+016135
X-032325Y+013733
X-037522Y+028476
X-026789Y+043300
X-026826Y+044568
X-041000Y+038200
X-048000Y+049200
X-048500Y+048700
X-040500Y+038700
X-040000Y+039200
X-048488Y+048211
X-049000Y+047700
X-040500Y+039700
X-039316Y+020997
X-029705Y+034817
X-039809Y+020912
X-027268Y+043071
X-047793Y+029666
X-046833Y+029677
X-041950Y+017642
X-029783Y+043388
X-030137Y+042107
X-030932Y+042427
X-047966Y+028790
X-047405Y+027233
X-047984Y+031579
X-029000Y+015500
X-028975Y+016747
X-028353Y+016069
X-027522Y+018679
X-042750Y+022750
X-046501Y+025391
X-045837Y+024993
X-040059Y+016936
X-038350Y+022650
X-041059Y+017920
X-043519Y+020809
X-039551Y+017285
X-040630Y+018333
X-043123Y+020809
X-040128Y+021407
X-033519Y+035452
X-048000Y+023846
X-053100Y+022800
X-052600Y+022800
X-052100Y+022800
X-051600Y+022800
X-051100Y+022800
X-050600Y+022800
X-050100Y+022800
X-049600Y+022800
X-049100Y+022800
X-048600Y+022800
X-048100Y+022800
X-047600Y+022800
X-047350Y+021800
X-047350Y+021300
X-047350Y+020800
X-047350Y+020300
X-047350Y+019800
X-047350Y+019300
X-047350Y+018800
X-047350Y+018300
X-047350Y+017300
X-047350Y+017800
X-047350Y+016800
X-047350Y+016300
X-047600Y+015300
X-053100Y+015300
X-052600Y+015300
X-052100Y+015300
X-051600Y+015300
X-051100Y+015300
X-050600Y+015300
X-050100Y+015300
X-049600Y+015300
X-049100Y+015300
X-048600Y+015300
X-048100Y+015300
T02
X-020860Y+015500
X-020860Y+014240
X-019880Y+014240
X-019880Y+015500
T03
X-019000Y+012500
X-019000Y+017240
T04
X-033122Y+012000
X-033122Y+013000
X-034122Y+012000
X-034122Y+013000
X-035122Y+012000
X-035122Y+013000
X-036122Y+012000
X-036122Y+013000
X-037122Y+012000
X-037122Y+013000
X-038122Y+012000
X-038122Y+013000
X-039122Y+012000
X-039122Y+013000
X-040122Y+012000
X-040122Y+013000
X-041122Y+012000
X-041122Y+013000
X-042122Y+012000
X-042122Y+013000
X-043122Y+012000
X-043122Y+013000
X-044122Y+012000
X-044122Y+013000
X-045122Y+012000
X-045122Y+013000
X-046122Y+012000
X-046122Y+013000
X-047122Y+012000
X-047122Y+013000
X-048122Y+012000
X-048122Y+013000
X-049122Y+012000
X-049122Y+013000
X-050122Y+012000
X-050122Y+013000
X-051122Y+012000
X-051122Y+013000
X-052122Y+012000
X-052122Y+013000
X-051450Y+024700
X-050450Y+024700
X-049450Y+024700
X-048450Y+024700
X-036150Y+021000
X-036150Y+020000
X-036150Y+019000
X-036150Y+018000
X-036150Y+017000
X-035150Y+017000
X-035150Y+018000
X-035150Y+019000
X-035150Y+020000
X-035150Y+021000
X-036150Y+033200
X-036150Y+032200
X-036150Y+031200
X-036150Y+030200
X-036150Y+029200
X-035150Y+029200
X-035150Y+030200
X-035150Y+031200
X-035150Y+032200
X-035150Y+033200
X-033550Y+039700
X-033550Y+040700
X-033550Y+041700
X-033550Y+042700
X-033550Y+043700
X-033550Y+044700
X-033550Y+045700
X-045500Y+021500
X-045500Y+020500
X-045500Y+019500
X-045500Y+018500
X-045500Y+017500
X-044500Y+017500
X-044500Y+018500
X-044500Y+019500
X-044500Y+020500
X-044500Y+021500
T05
X-020750Y+020000
X-021750Y+020500
X-020750Y+021000
X-021750Y+021500
X-020750Y+022000
X-021750Y+022500
X-020750Y+023000
X-021750Y+023500
X-020750Y+028250
X-021750Y+028750
X-020750Y+029250
X-021750Y+029750
X-020750Y+030250
X-021750Y+030750
X-020750Y+031250
X-021750Y+031750
T06
X-018250Y+024000
X-018250Y+019500
X-018250Y+032250
X-018250Y+027750
T07
X-019450Y+018700
X-019450Y+024800
X-019450Y+026950
X-019450Y+033050
T08
X-016750Y+024250
X-016750Y+023500
X-016750Y+019250
X-016750Y+020000
X-016750Y+032500
X-016750Y+031750
X-016750Y+027500
X-016750Y+028250
M30
